<svg width="32" height="32" viewBox="0 0 480 480" xmlns="http://www.w3.org/2000/svg" style="fill-rule:evenodd;clip-rule:evenodd;stroke-linejoin:round;stroke-miterlimit:1.5;">
  <path d="M240.425,149.265c49.939,0 90.484,40.544 90.484,90.484c0,49.939 -40.544,90.484 -90.484,90.484c-49.939,0 -90.484,-40.544 -90.484,-90.484c0,-49.939 40.544,-90.484 90.484,-90.484Zm0,57.187c18.377,0 33.297,14.92 33.297,33.297c0,18.377 -14.92,33.297 -33.297,33.297c-18.377,0 -33.297,-14.92 -33.297,-33.297c0,-18.377 14.92,-33.297 33.297,-33.297Z" style="fill:#2271b7;"/>
  <g>
    <path d="M16.727,183.551c0.019,28.139 22.229,50.97 49.568,50.952c27.339,-0.018 49.519,-22.878 49.5,-51.018c-0.019,-28.139 -22.229,-50.97 -49.568,-50.952c-27.339,0.018 -49.519,22.878 -49.5,51.018Zm28.729,-0.019c0.008,11.819 9.337,21.408 20.819,21.401c11.483,-0.008 20.799,-9.609 20.791,-21.428c-0.008,-11.819 -9.337,-21.408 -20.819,-21.401c-11.483,0.008 -20.799,9.609 -20.791,21.428Z" style="fill:#2271b7;"/>
    <path d="M149.927,133.906c0,0 2.062,64.914 -42.667,87.953c-60.137,30.976 -74.925,58.597 -63.979,101.542" style="fill:none;stroke:#2271b7;stroke-width:28px;"/>
  </g>
  <g>
    <path d="M75.741,402.982c23.414,15.608 54.734,9.812 69.898,-12.936c15.164,-22.748 8.466,-53.888 -14.948,-69.496c-23.414,-15.608 -54.734,-9.812 -69.898,12.936c-15.164,22.748 -8.466,53.888 14.948,69.496Zm15.935,-23.904c9.834,6.556 22.989,4.121 29.358,-5.433c6.369,-9.554 3.556,-22.634 -6.278,-29.189c-9.834,-6.556 -22.989,-4.121 -29.358,5.433c-6.369,9.554 -3.556,22.634 6.278,29.189Z" style="fill:#2271b7;"/>
    <path d="M108.408,264.636c0,0 55.133,34.327 49.46,84.32c-7.627,67.215 7.135,94.849 48.93,109.59" style="fill:none;stroke:#2271b7;stroke-width:28px;"/>
  </g>
  <g>
    <path d="M299.743,463.221c24.977,-12.96 35.034,-43.183 22.443,-67.449c-12.591,-24.267 -43.092,-33.446 -68.069,-20.487c-24.977,12.96 -35.034,43.183 -22.443,67.449c12.591,24.267 43.092,33.446 68.069,20.487Zm-13.231,-25.501c10.491,-5.443 14.715,-18.137 9.426,-28.33c-5.288,-10.192 -18.099,-14.048 -28.59,-8.605c-10.491,5.443 -14.715,18.137 -9.426,28.33c5.288,10.192 18.099,14.048 28.59,8.605Z" style="fill:#2271b7;"/>
    <path d="M194.394,367.783c0,0 56.691,-31.689 97.722,-2.57c55.166,39.15 86.493,39.575 119.591,10.103" style="fill:none;stroke:#2271b7;stroke-width:28px;"/>
  </g>
  <g>
    <path d="M460.913,307.421c1.042,-28.12 -20.292,-51.772 -47.612,-52.784c-27.32,-1.012 -50.346,20.996 -51.388,49.116c-1.042,28.12 20.292,51.772 47.612,52.784c27.32,1.012 50.346,-20.996 51.388,-49.116Zm-28.709,-1.064c0.438,-11.811 -8.523,-21.745 -19.998,-22.17c-11.475,-0.425 -21.146,8.819 -21.584,20.629c-0.438,11.811 8.523,21.745 19.998,22.17c11.475,0.425 21.146,-8.819 21.584,-20.629Z" style="fill:#2271b7;"/>
    <path d="M325.936,352.01c0,0 0.386,-64.945 45.952,-86.282c61.262,-28.687 77.08,-55.732 67.76,-99.059" style="fill:none;stroke:#2271b7;stroke-width:28px;"/>
  </g>
  <g>
    <path d="M410.21,85.921c-22.809,-16.479 -54.326,-11.868 -70.336,10.292c-16.011,22.16 -10.491,53.53 12.318,70.01c22.809,16.479 54.326,11.868 70.336,-10.292c16.011,-22.16 10.491,-53.53 -12.318,-70.01Zm-16.825,23.287c-9.58,-6.922 -22.818,-4.985 -29.542,4.323c-6.725,9.308 -4.406,22.484 5.174,29.405c9.58,6.922 22.818,4.985 29.542,-4.323c6.725,-9.308 4.406,-22.484 -5.174,-29.405Z" style="fill:#2271b7;"/>
    <path d="M372.353,222.938c0,0 -53.801,-36.381 -46.247,-86.124c10.155,-66.88 -3.556,-95.051 -44.765,-111.356" style="fill:none;stroke:#2271b7;stroke-width:28px;"/>
  </g>
  <g>
    <path d="M188.638,17.283c-25.448,12.009 -36.636,41.832 -24.969,66.556c11.667,24.724 41.801,35.047 67.249,23.037c25.448,-12.009 36.636,-41.832 24.969,-66.556c-11.667,-24.724 -41.801,-35.047 -67.249,-23.037Zm12.261,25.981c-10.689,5.044 -15.388,17.57 -10.487,27.954c4.901,10.384 17.557,14.72 28.245,9.676c10.689,-5.044 15.388,-17.57 10.487,-27.954c-4.901,-10.384 -17.557,-14.72 -28.245,-9.676Z" style="fill:#2271b7;"/>
    <path d="M290.315,116.624c0,0 -57.845,29.53 -97.749,-1.115c-53.651,-41.202 -84.941,-42.807 -119.125,-14.603" style="fill:none;stroke:#2271b7;stroke-width:28px;"/>
  </g>
</svg>
